<svg xmlns="http://www.w3.org/2000/svg" viewBox="0 0 306 178" role="img" aria-label="Simple MIDI program card"><g transform="translate(0 178) scale(1 -1)"><path fill="#27743a" d="M16 0h132l11 12h11l11-12h20l28 22h64c7 0 13 6 13 13v130c0 7-6 13-13 13H40c-22 0-40-18-40-40V16C0 7 7 0 16 0Z" /><circle cx="39" cy="138" r="27" fill="#fdfdfd" /></g><svg x="-7.4" y="11.36" width="316.8" height="161.28" viewBox="399.15 403.3 50.55 28.17" preserveAspectRatio="xMidYMid meet" aria-hidden="true"><path d="M412.839 424.52v-19.224h2.646l3.537 10.18h.054l3.51-10.18h2.673v19.224h-2.754v-11.691h-.054l-2.727 8.262h-1.377l-2.7-8.262h-.054v11.691zm15.093 0v-19.224h2.754v19.224zm5.427 0v-19.224h4.077q2.376 0 3.605 1.296 1.227 1.296 1.228 3.672v8.991q0 2.7-1.31 3.983-1.31 1.281-3.766 1.282zm2.754-16.632v14.04h1.269q1.161 0 1.647-.581.486-.58.486-1.822v-9.261q0-1.133-.459-1.755t-1.674-.621zm8.829 16.632v-19.224h2.753v19.224zm-38.649-1.14q.323-.001.576.112c.253.113.311.175.431.301s.212.27.275.437q.094.246.094.517.001.27-.094.517t-.275.437c-.18.19-.263.226-.431.301s-.36.113-.576.113h-3.762q-.324 0-.576-.113c-.252-.113-.313-.175-.432-.301a1.3 1.3 0 0 1-.275-.437 1.5 1.5 0 0 1-.094-.517q0-.27.094-.517.095-.248.275-.437a1.34 1.34 0 0 1 1.008-.414zm-3.762.917q-.198 0-.33.126c-.131.126-.13.192-.13.323s.044.24.13.325.198.126.33.126h3.762q.196 0 .328-.126c.132-.126.13-.193.13-.325s-.043-.239-.13-.323-.197-.126-.328-.126zm3.762 2.43q.323 0 .576.112c.253.112.311.176.431.302s.212.272.275.437q.094.248.094.517c0 .27-.03.353-.094.518q-.095.247-.275.436c-.18.19-.263.227-.431.302q-.252.111-.576.112h-3.762q-.324 0-.576-.112a1.3 1.3 0 0 1-.707-.738q-.094-.248-.094-.518c0-.27.031-.352.094-.517a1.3 1.3 0 0 1 .707-.739q.252-.112.576-.112zm-3.762.918q-.198 0-.33.126c-.131.126-.13.192-.13.324s.044.24.13.324.198.126.33.126h3.762q.196 0 .328-.126c.132-.126.13-.192.13-.324s-.043-.24-.13-.324-.197-.126-.328-.126z" style="fill:#e3d69e" /></svg></svg>