<svg xmlns="http://www.w3.org/2000/svg" viewBox="0 0 306 178" role="img" aria-label="Turing Machine program card"><g transform="translate(0 178) scale(1 -1)"><path fill="#27743a" d="M16 0h132l11 12h11l11-12h20l28 22h64c7 0 13 6 13 13v130c0 7-6 13-13 13H40c-22 0-40-18-40-40V16C0 7 7 0 16 0Z" /><circle cx="39" cy="138" r="27" fill="#fdfdfd" /></g><svg x="-7.4" y="11.36" width="316.8" height="161.28" viewBox="398.71 324.5 53.54 29.16" preserveAspectRatio="xMidYMid meet" aria-hidden="true"><path d="M417.516 328.002h-2.145v6.457h-1.452v-6.457h-2.112v-1.308h5.71zm7.205 3.168v.176q0 1.122-.132 1.53-.231.704-.99 1.243c-.759.539-1.192.539-2.057.539q-1.627 0-2.464-.924a2 2 0 0 1-.495-.836q-.12-.397-.12-1.585v-4.62h1.462v4.774q0 .627.077.859.286.923 1.595.923 1.254 0 1.573-.88.1-.285.1-.979v-4.696h1.451zm7.216 3.29h-1.661l-1.529-2.882h-1.309v2.881h-1.44v-7.765h3.178q1.375 0 2.09.945.473.627.473 1.519 0 .472-.143.869a2.3 2.3 0 0 1-.468.72q-.335.369-.918.544zm-1.672-5.314q0-.649-.484-.968-.351-.23-1.166-.23h-1.177v2.42h.517q.528 0 .77-.006a4 4 0 0 0 .517-.05q.275-.043.44-.132.583-.318.583-1.034m4.202 5.314h-1.43v-7.766h1.43zm7.26 0h-1.276l-3.4-5.446.089 5.445h-1.42v-7.765h1.31l3.443 5.477-.176-5.477h1.43zm8.03 0h-1.243l-.012-.66q-.923.858-2.133.858-1.486 0-2.486-.98-1.155-1.155-1.155-3.024 0-1.65.913-2.806.165-.208.385-.406.22-.2.572-.43t.847-.374a3.77 3.77 0 0 1 2.32.088q1.431.561 1.992 2.058l-1.386.55q-.54-1.53-1.892-1.53-.836 0-1.397.562-.77.79-.77 2.244 0 1.484.89 2.232.529.44 1.31.44.594 0 1.061-.286.467-.285.688-.814.11-.253.165-.692h-1.936v-1.277h3.267zm-37.972 9h-1.419l.144-6.38-1.684 6.38h-1.309l-1.683-6.38.143 6.38h-1.419v-7.766h2.113l1.517 5.763 1.496-5.763h2.101zm7.701 0h-1.552l-.45-1.518h-2.915l-.452 1.517h-1.562l2.63-7.765h1.65zm-2.388-2.794-1.067-3.576-1.078 3.576zm9.394.626a4.8 4.8 0 0 1-.583 1.045q-1.034 1.32-2.772 1.32-.847 0-1.562-.33-.375-.175-.704-.45c-.329-.276-.438-.423-.654-.716q-.326-.44-.517-1.116a5.4 5.4 0 0 1-.193-1.49q0-1.53.715-2.553 1.046-1.507 2.97-1.507 1.738.001 2.618 1.232.307.462.54 1.166l-1.442.374a1.6 1.6 0 0 0-.198-.615 1.5 1.5 0 0 0-.621-.622 1.74 1.74 0 0 0-.875-.204q-.484 0-.902.21-.506.253-.869.873-.363.623-.363 1.612 0 1.122.462 1.838.241.361.561.571.506.353 1.133.353.858 0 1.43-.705a6 6 0 0 0 .308-.472 8 8 0 0 0 .143-.386zm7.15 2.168h-1.463v-3.532h-3.333v3.531h-1.463v-7.765h1.463v2.926h3.333v-2.926h1.463zm2.64 0h-1.43v-7.766h1.43zm7.205 0h-1.277l-3.398-5.446.087 5.445h-1.418v-7.765h1.309l3.443 5.477-.176-5.477h1.43zm6.765 0h-5.797v-7.766h5.522v1.298h-4.092v1.826h3.75v1.254h-3.75v2.079h4.367zm-44.401 2.107q.324 0 .576.112c.252.112.312.176.432.302s.212.27.274.436q.096.247.095.517 0 .27-.095.518-.094.247-.274.436c-.18.19-.264.227-.432.302s-.36.112-.576.112h-3.761q-.325 0-.577-.112a1.05 1.05 0 0 1-.431-.302 1.3 1.3 0 0 1-.276-.436 1.5 1.5 0 0 1-.093-.518q0-.27.093-.517.096-.248.276-.436a1.34 1.34 0 0 1 1.008-.414zm-3.762.918q-.197 0-.329.126c-.132.126-.13.191-.13.323s.043.24.13.324.198.126.33.126h3.761q.198 0 .328-.126c.13-.126.131-.192.131-.324s-.044-.24-.13-.323-.197-.126-.329-.126zm2.385 3.518q0 .415.099.572.1.158.459.158h.828q.198 0 .324-.122c.126-.122.126-.19.126-.328q0-.243-.153-.347a.53.53 0 0 0-.297-.104h-.522v-.918h.53a1.33 1.33 0 0 1 .964.406q.18.189.288.44.108.253.108.54 0 .378-.148.626c-.148.248-.2.29-.302.373q-.108.09-.216.158c-.108.068-.16.082-.26.113q-.299.08-.882.08a9 9 0 0 1-.54-.013 1.1 1.1 0 0 1-.342-.067.7.7 0 0 1-.243-.176 2 2 0 0 1-.217-.31q-.135.216-.252.328a.75.75 0 0 1-.27.166 1.4 1.4 0 0 1-.383.064 15 15 0 0 1-1.084-.005 3 3 0 0 1-.341-.041 1.1 1.1 0 0 1-.45-.188q-.253-.172-.42-.437c-.166-.265-.165-.41-.165-.697q0-.217.07-.46.074-.243.235-.44c.161-.198.25-.242.423-.329s.387-.13.64-.13h.521v.917h-.476a.52.52 0 0 0-.356.122q-.14.12-.14.329c0 .209.046.247.14.328a.55.55 0 0 0 .373.122h.918q.378-.001.495-.145a.4.4 0 0 0 .09-.22q.019-.139.019-.365z" style="fill:#e3d69e" /></svg></svg>